<svg width="98" height="70" viewBox="0 0 98 70" fill="none" xmlns="http://www.w3.org/2000/svg">
<path d="M81.536 51.024C82.624 50.96 83.408 50.832 83.888 50.64C84.368 50.448 84.704 50.08 84.896 49.536C85.056 48.992 85.136 48.112 85.136 46.896L85.136 23.088C85.136 21.872 85.056 20.992 84.896 20.448C84.704 19.904 84.368 19.536 83.888 19.344C83.408 19.152 82.624 19.024 81.536 18.96V18C83.264 18.096 85.68 18.144 88.784 18.144C92.208 18.144 94.736 18.096 96.368 18V18.96C95.312 19.024 94.544 19.152 94.064 19.344C93.552 19.536 93.216 19.904 93.056 20.448C92.864 20.992 92.768 21.872 92.768 23.088L92.768 46.896C92.768 48.112 92.864 48.992 93.056 49.536C93.216 50.08 93.552 50.448 94.064 50.64C94.544 50.832 95.312 50.96 96.368 51.024V51.984C94.736 51.888 92.208 51.84 88.784 51.84C85.68 51.84 83.264 51.888 81.536 51.984V51.024ZM49.1371 51.984C49.3611 48.944 49.4731 46.224 49.4731 43.824C49.4731 42.32 49.4251 41.104 49.3291 40.176H50.4331C51.2011 44.112 52.2571 46.88 53.6011 48.48C54.9131 50.08 56.7211 50.88 59.0251 50.88H60.1291V23.472C60.1291 22.128 60.0011 21.152 59.7451 20.544C59.4571 19.936 58.9771 19.52 58.3051 19.296C57.6011 19.104 56.4971 18.992 54.9931 18.96V18C59.0251 18.096 62.0651 18.144 64.1131 18.144C66.1291 18.144 69.0571 18.096 72.8971 18V18.96C71.3931 18.992 70.3051 19.104 69.6331 19.296C68.9291 19.52 68.4491 19.936 68.1931 20.544C67.9051 21.152 67.7611 22.128 67.7611 23.472L67.7611 50.88H68.8171C70.3531 50.88 71.6651 50.544 72.7531 49.872C73.8091 49.2 74.7211 48.08 75.4891 46.512C76.2571 44.976 76.9131 42.864 77.4571 40.176H78.5611C78.4651 41.104 78.4171 42.32 78.4171 43.824C78.4171 46.224 78.5291 48.944 78.7531 51.984C75.8411 51.888 70.8971 51.84 63.9211 51.84C56.9451 51.84 52.0171 51.888 49.1371 51.984Z" fill="#BF522A"/>
<path d="M16.464 18.976C15.376 19.04 14.592 19.168 14.112 19.36C13.632 19.552 13.296 19.92 13.104 20.464C12.944 21.008 12.864 21.888 12.864 23.104V46.912C12.864 48.128 12.944 49.008 13.104 49.552C13.296 50.096 13.632 50.464 14.112 50.656C14.592 50.848 15.376 50.976 16.464 51.04V52C14.736 51.904 12.32 51.856 9.216 51.856C5.792 51.856 3.264 51.904 1.632 52V51.04C2.688 50.976 3.456 50.848 3.936 50.656C4.448 50.464 4.784 50.096 4.944 49.552C5.136 49.008 5.232 48.128 5.232 46.912V23.104C5.232 21.888 5.136 21.008 4.944 20.464C4.784 19.92 4.448 19.552 3.936 19.36C3.456 19.168 2.688 19.04 1.632 18.976V18.016C3.264 18.112 5.792 18.16 9.216 18.16C12.32 18.16 14.736 18.112 16.464 18.016V18.976ZM48.8629 18.016C48.6389 21.056 48.5269 23.776 48.5269 26.176C48.5269 27.68 48.5749 28.896 48.6709 29.824H47.5669C46.7989 25.888 45.7429 23.12 44.3989 21.52C43.0869 19.92 41.2789 19.12 38.9749 19.12H37.8709V46.528C37.8709 47.872 37.9989 48.848 38.2549 49.456C38.5429 50.064 39.0229 50.48 39.6949 50.704C40.3989 50.896 41.5029 51.008 43.0069 51.04V52C38.9749 51.904 35.9349 51.856 33.8869 51.856C31.8709 51.856 28.9429 51.904 25.1029 52V51.04C26.6069 51.008 27.6949 50.896 28.3669 50.704C29.0709 50.48 29.5509 50.064 29.8069 49.456C30.0949 48.848 30.2389 47.872 30.2389 46.528V19.12H29.1829C27.6469 19.12 26.3349 19.456 25.2469 20.128C24.1909 20.8 23.2789 21.92 22.5109 23.488C21.7429 25.024 21.0869 27.136 20.5429 29.824H19.4389C19.5349 28.896 19.5829 27.68 19.5829 26.176C19.5829 23.776 19.4709 21.056 19.2469 18.016C22.1589 18.112 27.1029 18.16 34.0789 18.16C41.0549 18.16 45.9829 18.112 48.8629 18.016Z" fill="#BF522A"/>
</svg>
